<svg width="49" height="19" viewBox="0 0 49 19" fill="none" xmlns="http://www.w3.org/2000/svg">
<path d="M-7.63086e-06 18L6.63428 -1.98909e-06H9.61714L16.2 18H13.32L11.7771 13.6029H4.42285L2.87999 18H-7.63086e-06ZM5.19428 11.4429H11.0057L8.09999 3.24L5.19428 11.4429ZM16.5501 18V5.24571H18.993L19.2244 7.66286C19.6702 6.82286 20.2873 6.16286 21.0759 5.68286C21.8816 5.18571 22.8502 4.93714 23.9816 4.93714V7.79143H23.2359C22.4816 7.79143 21.8044 7.92 21.2044 8.17714C20.6216 8.41714 20.1502 8.83714 19.7901 9.43714C19.4473 10.02 19.2759 10.8343 19.2759 11.88V18H16.5501ZM29.8756 18.3086C28.6241 18.3086 27.5099 18.0343 26.5327 17.4857C25.5727 16.92 24.8184 16.14 24.2699 15.1457C23.7213 14.1514 23.447 12.9943 23.447 11.6743C23.447 10.3371 23.7127 9.16286 24.2441 8.15143C24.7927 7.14 25.547 6.35143 26.507 5.78571C27.4841 5.22 28.6156 4.93714 29.9013 4.93714C31.1527 4.93714 32.2413 5.22 33.167 5.78571C34.0927 6.33428 34.8127 7.07143 35.327 7.99714C35.8413 8.92286 36.0984 9.94286 36.0984 11.0571C36.0984 11.2286 36.0899 11.4171 36.0727 11.6229C36.0727 11.8114 36.0641 12.0257 36.047 12.2657H26.1213C26.207 13.5 26.6099 14.4429 27.3299 15.0943C28.067 15.7286 28.9156 16.0457 29.8756 16.0457C30.647 16.0457 31.2899 15.8743 31.8041 15.5314C32.3356 15.1714 32.7299 14.6914 32.987 14.0914H35.7127C35.3699 15.2914 34.6841 16.2943 33.6556 17.1C32.6441 17.9057 31.3841 18.3086 29.8756 18.3086ZM29.8756 7.17428C28.967 7.17428 28.1613 7.44857 27.4584 7.99714C26.7556 8.52857 26.327 9.33429 26.1727 10.4143H33.3727C33.3213 9.42 32.9699 8.63143 32.3184 8.04857C31.667 7.46571 30.8527 7.17428 29.8756 7.17428ZM41.1895 18.3086C40.1095 18.3086 39.218 18.1286 38.5152 17.7686C37.8123 17.4086 37.2895 16.9371 36.9466 16.3543C36.6037 15.7543 36.4323 15.1029 36.4323 14.4C36.4323 13.1657 36.9123 12.1886 37.8723 11.4686C38.8323 10.7486 40.2037 10.3886 41.9866 10.3886H45.3295V10.1571C45.3295 9.16286 45.0552 8.41714 44.5066 7.92C43.9752 7.42286 43.2809 7.17428 42.4237 7.17428C41.6695 7.17428 41.0095 7.36286 40.4437 7.74C39.8952 8.1 39.5609 8.64 39.4409 9.36H36.7152C36.8009 8.43428 37.1095 7.64571 37.6409 6.99428C38.1895 6.32571 38.8752 5.82 39.698 5.47714C40.538 5.11714 41.4552 4.93714 42.4495 4.93714C44.2323 4.93714 45.6123 5.40857 46.5895 6.35143C47.5666 7.27714 48.0552 8.54571 48.0552 10.1571V18H45.6895L45.458 15.8143C45.098 16.5171 44.5752 17.1086 43.8895 17.5886C43.2037 18.0686 42.3037 18.3086 41.1895 18.3086ZM41.7295 16.0971C42.4666 16.0971 43.0837 15.9257 43.5809 15.5829C44.0952 15.2229 44.4895 14.7514 44.7637 14.1686C45.0552 13.5857 45.2352 12.9429 45.3037 12.24H42.2695C41.1895 12.24 40.418 12.4286 39.9552 12.8057C39.5095 13.1829 39.2866 13.6543 39.2866 14.22C39.2866 14.8029 39.5009 15.2657 39.9295 15.6086C40.3752 15.9343 40.9752 16.0971 41.7295 16.0971Z" fill="black"/>
</svg>
