<svg width="95" height="21" viewBox="0 0 95 21" fill="none" xmlns="http://www.w3.org/2000/svg">
<path d="M3.49507e-05 15.9763V0.391261H2.231V7.01015H7.5388V0.391261H9.76977V15.9763H7.5388V9.04023H2.231V15.9763H3.49507e-05ZM12.4042 20.5863C12.0236 20.5863 11.6429 20.5369 11.2623 20.4383C10.8817 20.3466 10.5927 20.2585 10.3953 20.1739L11.1777 18.2919C11.361 18.3906 11.5619 18.4751 11.7804 18.5456C11.9989 18.6161 12.1998 18.6514 12.3831 18.6514C12.7849 18.6514 13.1091 18.5492 13.3558 18.3447C13.6096 18.1403 13.8034 17.9042 13.9373 17.6363C14.0783 17.3755 14.1805 17.15 14.244 16.9596L14.7832 15.2573L14.7621 16.505L10.0041 4.73689H12.3196L14.7621 11.4509L15.5339 13.6079H15.5974L16.3163 11.4509L18.5685 4.73689H20.8417L16.1154 17.4777C16.0168 17.7456 15.8828 18.0557 15.7137 18.4082C15.5515 18.7606 15.3295 19.1025 15.0475 19.4338C14.7726 19.7651 14.4202 20.04 13.9902 20.2585C13.5673 20.477 13.0386 20.5863 12.4042 20.5863ZM21.2346 20.4171V4.73689H23.3281V6.12199H23.6348L23.1272 7.1899V13.259L23.7511 14.5489H23.381V20.4171H21.2346ZM26.4684 16.1455C25.5944 16.1455 24.8295 15.9058 24.174 15.4265C23.5255 14.9401 23.018 14.2634 22.6514 13.3964C22.292 12.5224 22.1122 11.5038 22.1122 10.3407C22.1122 9.17768 22.292 8.16264 22.6514 7.29563C23.018 6.42157 23.5255 5.74488 24.174 5.26556C24.8225 4.78623 25.5803 4.54657 26.4473 4.54657C27.3425 4.54657 28.1214 4.78623 28.784 5.26556C29.4536 5.73783 29.9717 6.411 30.3382 7.28506C30.7048 8.15207 30.8881 9.17063 30.8881 10.3407C30.8881 11.5179 30.7048 12.5435 30.3382 13.4176C29.9717 14.2846 29.4571 14.9578 28.7945 15.4371C28.1319 15.9094 27.3566 16.1455 26.4684 16.1455ZM26.0032 14.2423C26.56 14.2423 27.0429 14.0802 27.4517 13.7559C27.8676 13.4317 28.1883 12.977 28.4139 12.392C28.6395 11.8069 28.7522 11.1232 28.7522 10.3407C28.7522 9.55127 28.6359 8.86753 28.4033 8.28952C28.1778 7.70447 27.857 7.25334 27.4412 6.93614C27.0253 6.61189 26.5354 6.44977 25.9715 6.44977C25.4217 6.44977 24.9423 6.61189 24.5335 6.93614C24.1247 7.25334 23.8039 7.70447 23.5713 8.28952C23.3458 8.86753 23.233 9.55127 23.233 10.3407C23.233 11.1232 23.3458 11.8069 23.5713 12.392C23.8039 12.977 24.1282 13.4317 24.5441 13.7559C24.96 14.0802 25.4463 14.2423 26.0032 14.2423ZM36.6311 16.1455C35.5737 16.1455 34.6433 15.9023 33.8397 15.4159C33.0361 14.9296 32.4088 14.2493 31.9577 13.3753C31.5065 12.5012 31.281 11.4897 31.281 10.3407C31.281 9.19883 31.4959 8.19436 31.9259 7.32735C32.3559 6.46034 32.9551 5.78365 33.7234 5.29728C34.4917 4.8109 35.3799 4.56772 36.3879 4.56772C37.3324 4.56772 38.1642 4.78623 38.8832 5.22326C39.6022 5.65324 40.1625 6.25945 40.5643 7.04187C40.9732 7.81725 41.1776 8.7195 41.1776 9.74864C41.1776 9.9742 41.1635 10.2209 41.1353 10.4888C41.1141 10.7496 41.0824 10.9716 41.0401 11.1549H32.9621V9.54775H39.0946C39.0946 8.93449 38.9783 8.39878 38.7457 7.9406C38.5131 7.47538 38.1889 7.11236 37.773 6.85155C37.3641 6.59074 36.8919 6.46034 36.3561 6.46034C35.757 6.46034 35.2248 6.62246 34.7596 6.94671C34.3014 7.27096 33.9384 7.72209 33.6705 8.3001C33.4097 8.8781 33.2793 9.55127 33.2793 10.3196C33.2793 11.095 33.4238 11.7787 33.7128 12.3708C34.0018 12.9559 34.4001 13.4141 34.9076 13.7454C35.4151 14.0696 36.0002 14.2317 36.6628 14.2317C37.1491 14.2317 37.6426 14.1401 38.143 13.9568C38.6506 13.7665 39.0911 13.5127 39.4647 13.1955L40.2154 15.0141C39.7784 15.3384 39.2321 15.6098 38.5765 15.8283C37.921 16.0398 37.2725 16.1455 36.6311 16.1455ZM42.7758 15.9763V4.73689H44.9222V6.46034H45.2923L44.605 7.42251C44.746 6.8727 44.9892 6.3828 45.3346 5.95282C45.687 5.52284 46.1064 5.18449 46.5928 4.93778C47.0792 4.69107 47.6043 4.56772 48.1682 4.56772C48.7533 4.56772 49.2855 4.67345 49.7648 4.88492C50.2441 5.08933 50.66 5.39244 51.0124 5.79422C51.3649 6.18896 51.6433 6.67181 51.8477 7.24277L49.8705 8.04634C49.6661 7.57406 49.3665 7.20752 48.9718 6.94671C48.5841 6.6859 48.1083 6.5555 47.5444 6.5555C47.0862 6.5555 46.6598 6.6859 46.265 6.94671C45.8703 7.20047 45.5496 7.55644 45.3029 8.01462C45.0561 8.47279 44.9328 8.99793 44.9328 9.59004V15.9763H42.7758ZM56.0259 15.9763L51.1304 0.391261H53.4777L55.7087 8.18379L57.0832 12.8149H57.1678L58.5529 8.18379L60.7627 0.391261H63.1206L58.2569 15.9763H56.0259ZM67.0873 15.9763V4.73689H69.2442V15.9763H67.0873ZM63.6509 6.65066V4.73689H69.2442V6.65066H63.6509ZM68.1975 3.04516C67.7675 3.04516 67.4045 2.90066 67.1084 2.61166C66.8194 2.3156 66.6749 1.95259 66.6749 1.52261C66.6749 1.09262 66.8194 0.733131 67.1084 0.444128C67.4045 0.148075 67.7675 4.8589e-05 68.1975 4.8589e-05C68.6274 4.8589e-05 68.9869 0.148075 69.2759 0.444128C69.572 0.733131 69.72 1.09262 69.72 1.52261C69.72 1.95259 69.572 2.3156 69.2759 2.61166C68.9869 2.90066 68.6274 3.04516 68.1975 3.04516ZM78.4235 16.1455C77.3662 16.1455 76.4358 15.9023 75.6322 15.4159C74.8286 14.9296 74.2013 14.2493 73.7501 13.3753C73.299 12.5012 73.0734 11.4897 73.0734 10.3407C73.0734 9.19883 73.2884 8.19436 73.7184 7.32735C74.1484 6.46034 74.7476 5.78365 75.5159 5.29728C76.2842 4.8109 77.1724 4.56772 78.1804 4.56772C79.1249 4.56772 79.9567 4.78623 80.6757 5.22326C81.3946 5.65324 81.955 6.25945 82.3568 7.04187C82.7656 7.81725 82.9701 8.7195 82.9701 9.74864C82.9701 9.9742 82.956 10.2209 82.9278 10.4888C82.9066 10.7496 82.8749 10.9716 82.8326 11.1549H74.7546V9.54775H80.8871C80.8871 8.93449 80.7708 8.39878 80.5382 7.9406C80.3056 7.47538 79.9813 7.11236 79.5655 6.85155C79.1566 6.59074 78.6843 6.46034 78.1486 6.46034C77.5495 6.46034 77.0173 6.62246 76.5521 6.94671C76.0939 7.27096 75.7309 7.72209 75.463 8.3001C75.2022 8.8781 75.0718 9.55127 75.0718 10.3196C75.0718 11.095 75.2163 11.7787 75.5053 12.3708C75.7943 12.9559 76.1926 13.4141 76.7001 13.7454C77.2076 14.0696 77.7927 14.2317 78.4553 14.2317C78.9416 14.2317 79.4351 14.1401 79.9355 13.9568C80.443 13.7665 80.8836 13.5127 81.2572 13.1955L82.0079 15.0141C81.5709 15.3384 81.0246 15.6098 80.369 15.8283C79.7135 16.0398 79.065 16.1455 78.4235 16.1455ZM84.5683 15.9763L82.6334 4.73689H84.7058L85.5305 11.1337L85.8583 13.5339H85.9006L86.4504 11.8633L87.846 7.80315H89.0937L90.4894 11.8633L91.0392 13.5339H91.0815L91.4093 11.1337L92.234 4.73689H94.3063L92.3714 15.9763H90.2991L89.5483 13.7136L88.491 10.6368H88.4487L87.3914 13.7136L86.6407 15.9763H84.5683Z" fill="#6F6F6F"/>
</svg>
