<svg width="92" height="22" viewBox="0 0 92 22" fill="none" xmlns="http://www.w3.org/2000/svg">
<path d="M5.62288 16.2742L1.95788e-05 0.274168H2.46859L7.06288 13.9885L9.14288 7.83988L6.49145 0.274168H8.93716L10.7429 5.89703L12.5486 0.274168H15.0172L12.3429 7.83988L14.4229 13.9885L19.0172 0.274168H21.4857L15.8629 16.2742H13.0286L10.7429 9.71417L8.45716 16.2742H5.62288ZM24.5863 16.5485C23.4739 16.5485 22.491 16.297 21.6377 15.7942C20.7844 15.2913 20.1139 14.5904 19.6263 13.6913C19.1539 12.7923 18.9177 11.7637 18.9177 10.6056C18.9177 9.40179 19.1539 8.35798 19.6263 7.47417C20.0987 6.59036 20.7615 5.90465 21.6148 5.41703C22.4834 4.91417 23.4815 4.66274 24.6091 4.66274C25.7063 4.66274 26.6663 4.90655 27.4891 5.39417C28.312 5.86655 28.952 6.51417 29.4091 7.33703C29.8815 8.15988 30.1177 9.09703 30.1177 10.1485C30.1177 10.3618 30.1101 10.5446 30.0948 10.697C30.0948 10.8494 30.0796 11.0323 30.0491 11.2456H21.3406C21.3863 11.8856 21.5463 12.457 21.8206 12.9599C22.0948 13.4475 22.4682 13.8361 22.9406 14.1256C23.4129 14.3999 23.9539 14.537 24.5634 14.537C25.2187 14.537 25.7748 14.3923 26.232 14.1027C26.7044 13.798 27.0548 13.3713 27.2834 12.8227H29.7977C29.5996 13.5085 29.2644 14.1332 28.792 14.697C28.3348 15.2608 27.7558 15.7104 27.0548 16.0456C26.3539 16.3808 25.531 16.5485 24.5863 16.5485ZM21.3634 9.53131H27.6491C27.6187 8.6475 27.3063 7.95417 26.712 7.45131C26.1177 6.93322 25.3939 6.67417 24.5406 6.67417C23.7787 6.67417 23.0853 6.91036 22.4606 7.38274C21.8358 7.85512 21.4701 8.57131 21.3634 9.53131ZM36.7131 16.5485C35.8597 16.5485 35.0826 16.3808 34.3816 16.0456C33.6959 15.6951 33.1473 15.1923 32.7359 14.537L32.6445 16.2742H30.3131V0.274168H32.7359V6.67417C33.1321 6.07988 33.6654 5.59988 34.3359 5.23417C35.0064 4.85322 35.7988 4.66274 36.7131 4.66274C37.8254 4.66274 38.7854 4.92179 39.5931 5.43988C40.4159 5.95798 41.0483 6.66655 41.4902 7.5656C41.9321 8.46465 42.1531 9.47036 42.1531 10.5827C42.1531 11.6951 41.9321 12.7085 41.4902 13.6227C41.0483 14.5218 40.4159 15.238 39.5931 15.7713C38.7854 16.2894 37.8254 16.5485 36.7131 16.5485ZM36.2102 14.4227C36.9112 14.4227 37.5207 14.2627 38.0388 13.9427C38.5569 13.6075 38.9607 13.1504 39.2502 12.5713C39.5397 11.977 39.6845 11.3142 39.6845 10.5827C39.6845 9.82084 39.5321 9.15798 39.2273 8.59417C38.9378 8.01512 38.534 7.5656 38.0159 7.2456C37.4978 6.9256 36.8959 6.7656 36.2102 6.7656C35.5397 6.7656 34.9454 6.93322 34.4273 7.26845C33.9092 7.58845 33.4978 8.03798 33.1931 8.61703C32.9035 9.18084 32.7588 9.84369 32.7588 10.6056C32.7588 11.337 32.9035 11.9923 33.1931 12.5713C33.4978 13.1504 33.9092 13.6075 34.4273 13.9427C34.9454 14.2627 35.5397 14.4227 36.2102 14.4227ZM48.0566 16.5485C46.9595 16.5485 45.9614 16.358 45.0623 15.977C44.1785 15.5808 43.4776 15.0094 42.9595 14.2627C42.4414 13.5008 42.1747 12.5637 42.1595 11.4513H44.6966C44.7119 12.3656 45.0242 13.1046 45.6338 13.6685C46.2433 14.217 47.0509 14.4913 48.0566 14.4913C48.9252 14.4913 49.6338 14.2856 50.1823 13.8742C50.7462 13.4475 51.0281 12.8608 51.0281 12.1142C51.0281 11.657 50.9519 11.2837 50.7995 10.9942C50.6471 10.6894 50.3957 10.4227 50.0452 10.1942C49.71 9.9656 49.2604 9.75226 48.6966 9.55417C48.1328 9.34084 47.4395 9.09703 46.6166 8.82274C45.7023 8.50274 44.9481 8.14465 44.3538 7.74845C43.7747 7.33703 43.3404 6.86465 43.0509 6.33131C42.7614 5.78274 42.6166 5.1656 42.6166 4.47988C42.6166 3.50464 42.8452 2.68941 43.3023 2.03417C43.7747 1.36369 44.4071 0.860835 45.1995 0.525598C45.9919 0.175122 46.8681 -0.000116464 47.8281 -0.000116464C48.8033 -0.000116464 49.6795 0.175122 50.4566 0.525598C51.249 0.860835 51.8814 1.37131 52.3538 2.05703C52.8414 2.7275 53.0928 3.55036 53.1081 4.5256H50.5252C50.5252 3.82465 50.2662 3.23798 49.7481 2.7656C49.2452 2.29322 48.5747 2.05703 47.7366 2.05703C47.0204 2.04179 46.4109 2.22465 45.9081 2.6056C45.4052 2.98655 45.1538 3.54274 45.1538 4.27417C45.1538 4.79226 45.2985 5.21131 45.5881 5.53131C45.8776 5.85131 46.3119 6.13322 46.8909 6.37703C47.47 6.62084 48.1938 6.89512 49.0623 7.19988C49.6262 7.38274 50.1747 7.59607 50.7081 7.83988C51.2566 8.08369 51.7442 8.38846 52.1709 8.75417C52.5976 9.10465 52.9328 9.53893 53.1766 10.057C53.4357 10.5751 53.5652 11.2075 53.5652 11.9542C53.5652 12.9294 53.3138 13.7599 52.8109 14.4456C52.3233 15.1161 51.6604 15.6342 50.8223 15.9999C49.9995 16.3656 49.0776 16.5485 48.0566 16.5485ZM58.3191 16.5485C57.3896 16.5485 56.5896 16.358 55.9191 15.977C55.2487 15.5808 54.7306 15.017 54.3648 14.2856C53.9991 13.5389 53.8163 12.6475 53.8163 11.6113V4.93703H56.2163V11.2913C56.2163 12.297 56.4448 13.0818 56.902 13.6456C57.3744 14.2094 58.0601 14.4913 58.9591 14.4913C59.8887 14.4913 60.6201 14.1866 61.1534 13.577C61.6867 12.9523 61.9534 12.0989 61.9534 11.017V4.93703H64.3763V16.2742H62.0448L61.9991 14.5827C61.6182 15.2075 61.1001 15.6951 60.4448 16.0456C59.8048 16.3808 59.0963 16.5485 58.3191 16.5485ZM65.1622 16.2742V4.93703H67.4936L67.5622 6.85703C67.9431 6.17131 68.4612 5.63798 69.1164 5.25703C69.7869 4.86084 70.5717 4.66274 71.4707 4.66274V7.19988H70.8079C69.726 7.19988 68.9184 7.48179 68.385 8.0456C67.8517 8.59417 67.585 9.43988 67.585 10.5827V16.2742H65.1622ZM75.9673 21.577C75.0073 21.577 74.1159 21.4627 73.2931 21.2342C72.4702 21.0056 71.8073 20.6246 71.3045 20.0913C70.8169 19.5732 70.5731 18.8799 70.5731 18.0113C70.5731 17.4323 70.7026 16.9446 70.9616 16.5485C71.2207 16.1523 71.5864 15.8246 72.0588 15.5656C71.6778 15.3523 71.3807 15.078 71.1673 14.7427C70.954 14.4075 70.8473 14.0189 70.8473 13.577C70.8473 12.617 71.2892 11.8627 72.1731 11.3142C71.8531 10.9637 71.6016 10.5675 71.4188 10.1256C71.2359 9.68369 71.1445 9.20369 71.1445 8.6856C71.1445 7.86274 71.3426 7.15417 71.7388 6.55988C72.135 5.95036 72.6759 5.4856 73.3616 5.1656C74.0473 4.83036 74.8321 4.66274 75.7159 4.66274C76.3712 4.66274 76.9731 4.75417 77.5216 4.93703H81.4988V6.83417H79.8302C79.9673 7.12369 80.074 7.42084 80.1502 7.7256C80.2416 8.03036 80.2873 8.35036 80.2873 8.6856C80.2873 9.52369 80.0816 10.2475 79.6702 10.857C79.274 11.4513 78.7331 11.9161 78.0473 12.2513C77.3616 12.5713 76.5845 12.7313 75.7159 12.7313C75.3197 12.7313 74.954 12.6932 74.6188 12.617C74.2835 12.5256 73.9483 12.4037 73.6131 12.2513C73.2473 12.4342 73.0645 12.7161 73.0645 13.097C73.0645 13.8132 73.6664 14.1713 74.8702 14.1713H76.8588C77.7426 14.1713 78.5045 14.2932 79.1445 14.537C79.7997 14.7656 80.3026 15.1389 80.6531 15.657C81.0188 16.1751 81.2016 16.8532 81.2016 17.6913C81.2016 18.5142 80.9578 19.2151 80.4702 19.7942C79.9978 20.3732 79.3654 20.8151 78.5731 21.1199C77.7807 21.4246 76.9121 21.577 75.9673 21.577ZM75.9445 19.6342C76.7673 19.6342 77.4683 19.4894 78.0473 19.1999C78.6264 18.9104 78.9159 18.4685 78.9159 17.8742C78.9159 16.777 78.2073 16.2285 76.7902 16.2285H74.9845C74.314 16.2285 73.7883 16.3656 73.4073 16.6399C73.0264 16.9142 72.8359 17.3256 72.8359 17.8742C72.8359 18.3008 72.9807 18.6437 73.2702 18.9027C73.5597 19.1618 73.9407 19.3446 74.4131 19.4513C74.8854 19.5732 75.3959 19.6342 75.9445 19.6342ZM75.6931 10.7885C76.3788 10.7885 76.935 10.5904 77.3616 10.1942C77.8035 9.79798 78.0245 9.29512 78.0245 8.6856C78.0245 8.09131 77.8035 7.59607 77.3616 7.19988C76.935 6.80369 76.3788 6.6056 75.6931 6.6056C75.0073 6.6056 74.4512 6.80369 74.0245 7.19988C73.6131 7.59607 73.4073 8.09131 73.4073 8.6856C73.4073 9.29512 73.6054 9.79798 74.0016 10.1942C74.4131 10.5904 74.9769 10.7885 75.6931 10.7885ZM86.4497 16.5485C85.3373 16.5485 84.3544 16.297 83.5011 15.7942C82.6478 15.2913 81.9773 14.5904 81.4897 13.6913C81.0173 12.7923 80.7811 11.7637 80.7811 10.6056C80.7811 9.40179 81.0173 8.35798 81.4897 7.47417C81.962 6.59036 82.6249 5.90465 83.4782 5.41703C84.3468 4.91417 85.3449 4.66274 86.4725 4.66274C87.5697 4.66274 88.5297 4.90655 89.3525 5.39417C90.1754 5.86655 90.8154 6.51417 91.2725 7.33703C91.7449 8.15988 91.9811 9.09703 91.9811 10.1485C91.9811 10.3618 91.9735 10.5446 91.9582 10.697C91.9582 10.8494 91.943 11.0323 91.9125 11.2456H83.2039C83.2497 11.8856 83.4097 12.457 83.6839 12.9599C83.9582 13.4475 84.3316 13.8361 84.8039 14.1256C85.2763 14.3999 85.8173 14.537 86.4268 14.537C87.082 14.537 87.6382 14.3923 88.0954 14.1027C88.5678 13.798 88.9182 13.3713 89.1468 12.8227H91.6611C91.463 13.5085 91.1278 14.1332 90.6554 14.697C90.1982 15.2608 89.6192 15.7104 88.9182 16.0456C88.2173 16.3808 87.3944 16.5485 86.4497 16.5485ZM83.2268 9.53131H89.5125C89.482 8.6475 89.1697 7.95417 88.5754 7.45131C87.9811 6.93322 87.2573 6.67417 86.404 6.67417C85.642 6.67417 84.9487 6.91036 84.3239 7.38274C83.6992 7.85512 83.3335 8.57131 83.2268 9.53131Z" fill="#6F6F6F"/>
</svg>
